<svg width="520" height="140" viewBox="0 0 520 140" xmlns="http://www.w3.org/2000/svg" role="img" aria-label="SpecDown logo">
  <defs>
    <linearGradient id="sdG" x1="0" y1="0" x2="1" y2="1">
      <stop offset="0" stop-color="#00A3BF"/>
      <stop offset="1" stop-color="#FF7A4D"/>
    </linearGradient>
    <linearGradient id="sdCore" x1="0" y1="0" x2="1" y2="1">
      <stop offset="0" stop-color="#FFD36A"/>
      <stop offset="1" stop-color="#FF7A00"/>
    </linearGradient>
  </defs>

  <!-- MARK -->
  <g transform="translate(24,20)">
    <!-- halo ring -->
    <circle cx="50" cy="50" r="44" fill="none" stroke="url(#sdG)" stroke-width="6" opacity="0.9"/>

    <!-- simplified "android face" shield -->
    <path d="M50 10
             C28 10, 16 28, 16 46
             C16 70, 32 86, 50 92
             C68 86, 84 70, 84 46
             C84 28, 72 10, 50 10 Z"
          fill="#0F1724" opacity="0.95"/>

    <!-- cheek highlights -->
    <path d="M28 44 C30 32, 38 24, 50 22" fill="none" stroke="#FFFFFF" stroke-width="3" opacity="0.12"/>
    <path d="M72 44 C70 32, 62 24, 50 22" fill="none" stroke="#FFFFFF" stroke-width="3" opacity="0.12"/>

    <!-- eyes -->
    <path d="M34 50 Q40 46 46 50" fill="none" stroke="#00D5FF" stroke-width="4" stroke-linecap="round" opacity="0.9"/>
    <path d="M54 50 Q60 46 66 50" fill="none" stroke="#00D5FF" stroke-width="4" stroke-linecap="round" opacity="0.9"/>

    <!-- core (diamond) -->
    <g transform="translate(50,34)">
      <path d="M0 -10 L10 0 L0 10 L-10 0 Z" fill="url(#sdCore)"/>
      <path d="M0 -10 L10 0 L0 10 L-10 0 Z" fill="none" stroke="#FFFFFF" stroke-width="1" opacity="0.35"/>
      <circle cx="0" cy="0" r="3.5" fill="#FFFFFF" opacity="0.35"/>
    </g>
  </g>

  <!-- WORDMARK -->
  <g transform="translate(140,45)">
    <text x="0" y="50"
          font-family="Inter, system-ui, -apple-system, Segoe UI, Roboto, Arial"
          font-size="56" font-weight="800" letter-spacing="-0.02em"
          fill="#0F1724">Spec</text>
    <text x="138" y="50"
          font-family="Inter, system-ui, -apple-system, Segoe UI, Roboto, Arial"
          font-size="56" font-weight="800" letter-spacing="-0.02em"
          fill="url(#sdG)">Down</text>
  </g>
</svg>
